<svg version="1.1" xmlns="http://www.w3.org/2000/svg" xmlns:xlink="http://www.w3.org/1999/xlink" width="431.000000pt" height="431.000000pt" viewBox="0,0,256,256"><g fill="#ffb700" fill-rule="nonzero" stroke="none" stroke-width="1" stroke-linecap="butt" stroke-linejoin="miter" stroke-miterlimit="10" stroke-dasharray="" stroke-dashoffset="0" font-family="none" font-weight="none" font-size="none" text-anchor="none" style="mix-blend-mode: normal"><g transform="translate(0.15185,-0.63003) scale(0.59397,0.59397)"><g transform="translate(0,431) scale(0.1,-0.1)"><path d="M2145,3819c-258,-15 -455,-55 -717,-145c-411,-141 -694,-304 -942,-544c-267,-258 -426,-538 -450,-795c-19,-198 60,-483 178,-650c59,-82 173,-187 281,-259c93,-62 275,-159 367,-197c89,-35 61,-34 -44,1c-199,69 -377,159 -485,247l-56,46l62,-119c176,-334 239,-420 421,-567c107,-86 400,-228 528,-255c58,-13 92,-16 92,-9c0,5 -20,84 -45,174c-25,90 -45,167 -44,171c0,4 31,-83 70,-193c43,-124 78,-208 92,-222c19,-20 39,-24 142,-33c128,-10 665,-14 665,-4c0,7 -76,218 -169,472l-71,193l86,292c48,161 127,427 176,592c50,165 128,431 175,590c47,160 145,491 219,737c74,246 134,453 134,461c0,9 -14,17 -37,21c-51,8 -466,5 -628,-5zM1920,3494c-33,-93 -166,-473 -295,-844c-217,-619 -352,-1001 -358,-1006c-1,-2 -2,22 -2,52v55l-77,34c-169,73 -341,212 -408,327c-128,224 -68,476 184,770c154,178 418,319 698,373c172,33 142,5 233,222c43,106 80,191 82,189c2,-1 -24,-79 -57,-172z"></path><path d="M1474,2566c-176,-141 -342,-344 -395,-483c-13,-34 -12,-33 46,45c62,85 171,189 284,270l93,67l29,79c16,43 28,80 26,82c-2,2 -39,-25 -83,-60z"></path><path d="M2914,3732c-6,-4 -40,-104 -74,-222c-35,-118 -65,-220 -67,-226c-2,-7 24,-18 64,-28c234,-59 441,-212 530,-394c34,-68 38,-84 41,-172c7,-167 -44,-319 -152,-457c-60,-76 -136,-141 -277,-235c-183,-122 -313,-179 -528,-228c-68,-16 -127,-33 -131,-37c-6,-7 -64,-200 -151,-501l-18,-63l47,6c118,16 349,68 467,104c293,90 627,250 800,384c29,23 35,25 20,8c-28,-32 -249,-178 -372,-245c-267,-144 -601,-264 -861,-308c-41,-7 -76,-17 -79,-23c-2,-6 35,-124 81,-261c59,-170 92,-255 107,-266c27,-23 114,-24 230,-3c360,62 955,345 1212,575c240,215 393,472 451,756c32,154 26,211 -63,619c-45,204 -91,397 -102,430c-96,271 -313,522 -554,642c-181,91 -398,153 -530,153c-44,0 -85,-4 -91,-8zM3550,1727c0,-2 -10,-12 -22,-23l-23,-19l19,23c18,21 26,27 26,19z"></path><path d="M2883,2702c-7,-4 -51,-145 -99,-312c-47,-168 -99,-348 -113,-400c-25,-85 -25,-119 -1,-94c4,5 57,181 116,391c59,210 110,387 114,393c9,15 143,-21 232,-63c40,-19 103,-54 140,-79c68,-46 78,-48 78,-18c0,30 -220,133 -365,171c-79,21 -85,22 -102,11z"></path></g></g></g></svg>